<?xml version="1.0" encoding="UTF-8" standalone="no"?>
<!DOCTYPE svg PUBLIC "-//W3C//DTD SVG 1.1//EN"
 "http://www.w3.org/Graphics/SVG/1.1/DTD/svg11.dtd">
<!-- Generated by graphviz version 13.1.1 (0)
 -->
<!-- Title: model Pages: 1 -->
<svg width="185pt" height="192pt"
 viewBox="0.00 0.00 185.00 192.00" xmlns="http://www.w3.org/2000/svg" xmlns:xlink="http://www.w3.org/1999/xlink">
<g id="graph0" class="graph" transform="scale(1 1) rotate(0) translate(4 188)">
<title>model</title>
<polygon fill="white" stroke="none" points="-4,4 -4,-188 181,-188 181,4 -4,4"/>
<!-- 0 -->
<g id="node1" class="node">
<title>0</title>
<polygon fill="lightyellow" stroke="none" points="158.5,-184 18.5,-184 18.5,-150 158.5,-150 158.5,-184"/>
<polygon fill="none" stroke="black" points="18.5,-150 18.5,-184 79.5,-184 79.5,-150 18.5,-150"/>
<text xml:space="preserve" text-anchor="start" x="23.5" y="-169.5" font-family="Linux libertine" font-size="10.00">input&#45;tensor</text>
<text xml:space="preserve" text-anchor="start" x="33.62" y="-157.5" font-family="Linux libertine" font-size="10.00">depth:0</text>
<polygon fill="none" stroke="black" points="79.5,-150 79.5,-184 158.5,-184 158.5,-150 79.5,-150"/>
<text xml:space="preserve" text-anchor="start" x="84.5" y="-163.5" font-family="Linux libertine" font-size="10.00">(1, 1, 64, 224, 224)</text>
</g>
<!-- 1 -->
<g id="node2" class="node">
<title>1</title>
<polygon fill="#c1ffc1" stroke="none" points="177,-114 0,-114 0,-70 177,-70 177,-114"/>
<polygon fill="none" stroke="black" points="0,-70 0,-114 52.75,-114 52.75,-70 0,-70"/>
<text xml:space="preserve" text-anchor="start" x="5" y="-94.5" font-family="Linux libertine" font-size="10.00">Sequential</text>
<text xml:space="preserve" text-anchor="start" x="11" y="-82.5" font-family="Linux libertine" font-size="10.00">depth:1</text>
<polygon fill="none" stroke="black" points="52.75,-92 52.75,-114 95.75,-114 95.75,-92 52.75,-92"/>
<text xml:space="preserve" text-anchor="start" x="62.25" y="-99.5" font-family="Linux libertine" font-size="10.00">input:</text>
<polygon fill="none" stroke="black" points="95.75,-92 95.75,-114 177,-114 177,-92 95.75,-92"/>
<text xml:space="preserve" text-anchor="start" x="100.75" y="-99.5" font-family="Linux libertine" font-size="10.00">(1, 1, 64, 224, 224) </text>
<polygon fill="none" stroke="black" points="52.75,-70 52.75,-92 95.75,-92 95.75,-70 52.75,-70"/>
<text xml:space="preserve" text-anchor="start" x="57.75" y="-77.5" font-family="Linux libertine" font-size="10.00">output: </text>
<polygon fill="none" stroke="black" points="95.75,-70 95.75,-92 177,-92 177,-70 95.75,-70"/>
<text xml:space="preserve" text-anchor="start" x="100.75" y="-77.5" font-family="Linux libertine" font-size="10.00">(1, 1, 64, 224, 224) </text>
</g>
<!-- 0&#45;&gt;1 -->
<g id="edge1" class="edge">
<title>0&#45;&gt;1</title>
<path fill="none" stroke="black" d="M88.5,-150.16C88.5,-142.84 88.5,-133.86 88.5,-125.21"/>
<polygon fill="black" stroke="black" points="92,-125.31 88.5,-115.31 85,-125.31 92,-125.31"/>
</g>
<!-- 2 -->
<g id="node3" class="node">
<title>2</title>
<polygon fill="lightyellow" stroke="none" points="161.88,-34 15.12,-34 15.12,0 161.88,0 161.88,-34"/>
<polygon fill="none" stroke="black" points="15.12,0 15.12,-34 82.88,-34 82.88,0 15.12,0"/>
<text xml:space="preserve" text-anchor="start" x="20.12" y="-19.5" font-family="Linux libertine" font-size="10.00">output&#45;tensor</text>
<text xml:space="preserve" text-anchor="start" x="33.62" y="-7.5" font-family="Linux libertine" font-size="10.00">depth:0</text>
<polygon fill="none" stroke="black" points="82.88,0 82.88,-34 161.88,-34 161.88,0 82.88,0"/>
<text xml:space="preserve" text-anchor="start" x="87.88" y="-13.5" font-family="Linux libertine" font-size="10.00">(1, 1, 64, 224, 224)</text>
</g>
<!-- 1&#45;&gt;2 -->
<g id="edge2" class="edge">
<title>1&#45;&gt;2</title>
<path fill="none" stroke="black" d="M88.5,-70.28C88.5,-62.46 88.5,-53.45 88.5,-45.13"/>
<polygon fill="black" stroke="black" points="92,-45.18 88.5,-35.18 85,-45.18 92,-45.18"/>
</g>
</g>
</svg>
