<?xml version="1.0" encoding="UTF-8" standalone="no"?>
<!DOCTYPE svg PUBLIC "-//W3C//DTD SVG 1.1//EN"
 "http://www.w3.org/Graphics/SVG/1.1/DTD/svg11.dtd">
<!-- Generated by graphviz version 13.1.1 (0)
 -->
<!-- Title: model Pages: 1 -->
<svg width="296pt" height="770pt"
 viewBox="0.00 0.00 296.00 770.00" xmlns="http://www.w3.org/2000/svg" xmlns:xlink="http://www.w3.org/1999/xlink">
<g id="graph0" class="graph" transform="scale(1 1) rotate(0) translate(4 766.25)">
<title>model</title>
<polygon fill="white" stroke="none" points="-4,4 -4,-766.25 292,-766.25 292,4 -4,4"/>
<g id="clust1" class="cluster">
<title>cluster_2</title>
<polygon fill="none" stroke="black" stroke-dasharray="5,2" points="8,-8 8,-720.25 280,-720.25 280,-8 8,-8"/>
<text xml:space="preserve" text-anchor="middle" x="47.88" y="-704.85" font-family="Times,serif" font-size="12.00">Sequential</text>
</g>
<!-- 0 -->
<g id="node1" class="node">
<title>0</title>
<polygon fill="lightyellow" stroke="none" points="214,-762.25 74,-762.25 74,-728.25 214,-728.25 214,-762.25"/>
<polygon fill="none" stroke="black" points="74,-728.25 74,-762.25 135,-762.25 135,-728.25 74,-728.25"/>
<text xml:space="preserve" text-anchor="start" x="79" y="-747.75" font-family="Linux libertine" font-size="10.00">input&#45;tensor</text>
<text xml:space="preserve" text-anchor="start" x="89.12" y="-735.75" font-family="Linux libertine" font-size="10.00">depth:0</text>
<polygon fill="none" stroke="black" points="135,-728.25 135,-762.25 214,-762.25 214,-728.25 135,-728.25"/>
<text xml:space="preserve" text-anchor="start" x="140" y="-741.75" font-family="Linux libertine" font-size="10.00">(1, 1, 64, 224, 224)</text>
</g>
<!-- 1 -->
<g id="node2" class="node">
<title>1</title>
<polygon fill="#c1ffc1" stroke="none" points="226.88,-690 61.12,-690 61.12,-646 226.88,-646 226.88,-690"/>
<polygon fill="none" stroke="black" points="61.12,-646 61.12,-690 102.62,-690 102.62,-646 61.12,-646"/>
<text xml:space="preserve" text-anchor="start" x="66.12" y="-670.5" font-family="Linux libertine" font-size="10.00">Conv2d</text>
<text xml:space="preserve" text-anchor="start" x="66.5" y="-658.5" font-family="Linux libertine" font-size="10.00">depth:2</text>
<polygon fill="none" stroke="black" points="102.62,-668 102.62,-690 145.62,-690 145.62,-668 102.62,-668"/>
<text xml:space="preserve" text-anchor="start" x="112.12" y="-675.5" font-family="Linux libertine" font-size="10.00">input:</text>
<polygon fill="none" stroke="black" points="145.62,-668 145.62,-690 226.88,-690 226.88,-668 145.62,-668"/>
<text xml:space="preserve" text-anchor="start" x="150.62" y="-675.5" font-family="Linux libertine" font-size="10.00">(1, 1, 64, 224, 224) </text>
<polygon fill="none" stroke="black" points="102.62,-646 102.62,-668 145.62,-668 145.62,-646 102.62,-646"/>
<text xml:space="preserve" text-anchor="start" x="107.62" y="-653.5" font-family="Linux libertine" font-size="10.00">output: </text>
<polygon fill="none" stroke="black" points="145.62,-646 145.62,-668 226.88,-668 226.88,-646 145.62,-646"/>
<text xml:space="preserve" text-anchor="start" x="150.62" y="-653.5" font-family="Linux libertine" font-size="10.00">(1, 1, 16, 224, 224) </text>
</g>
<!-- 0&#45;&gt;1 -->
<g id="edge1" class="edge">
<title>0&#45;&gt;1</title>
<path fill="none" stroke="black" d="M144,-728.29C144,-720.4 144,-710.59 144,-701.23"/>
<polygon fill="black" stroke="black" points="147.5,-701.31 144,-691.31 140.5,-701.31 147.5,-701.31"/>
</g>
<!-- 2 -->
<g id="node3" class="node">
<title>2</title>
<polygon fill="#c1ffc1" stroke="none" points="240.38,-610 47.62,-610 47.62,-566 240.38,-566 240.38,-610"/>
<polygon fill="none" stroke="black" points="47.62,-566 47.62,-610 116.12,-610 116.12,-566 47.62,-566"/>
<text xml:space="preserve" text-anchor="start" x="52.62" y="-590.5" font-family="Linux libertine" font-size="10.00">BatchNorm2d</text>
<text xml:space="preserve" text-anchor="start" x="66.5" y="-578.5" font-family="Linux libertine" font-size="10.00">depth:2</text>
<polygon fill="none" stroke="black" points="116.12,-588 116.12,-610 159.12,-610 159.12,-588 116.12,-588"/>
<text xml:space="preserve" text-anchor="start" x="125.62" y="-595.5" font-family="Linux libertine" font-size="10.00">input:</text>
<polygon fill="none" stroke="black" points="159.12,-588 159.12,-610 240.38,-610 240.38,-588 159.12,-588"/>
<text xml:space="preserve" text-anchor="start" x="164.12" y="-595.5" font-family="Linux libertine" font-size="10.00">(1, 1, 16, 224, 224) </text>
<polygon fill="none" stroke="black" points="116.12,-566 116.12,-588 159.12,-588 159.12,-566 116.12,-566"/>
<text xml:space="preserve" text-anchor="start" x="121.12" y="-573.5" font-family="Linux libertine" font-size="10.00">output: </text>
<polygon fill="none" stroke="black" points="159.12,-566 159.12,-588 240.38,-588 240.38,-566 159.12,-566"/>
<text xml:space="preserve" text-anchor="start" x="164.12" y="-573.5" font-family="Linux libertine" font-size="10.00">(1, 1, 16, 224, 224) </text>
</g>
<!-- 1&#45;&gt;2 -->
<g id="edge2" class="edge">
<title>1&#45;&gt;2</title>
<path fill="none" stroke="black" d="M144,-646.1C144,-638.49 144,-629.7 144,-621.34"/>
<polygon fill="black" stroke="black" points="147.5,-621.47 144,-611.47 140.5,-621.47 147.5,-621.47"/>
</g>
<!-- 3 -->
<g id="node4" class="node">
<title>3</title>
<polygon fill="#c1ffc1" stroke="none" points="272.25,-530 15.75,-530 15.75,-486 272.25,-486 272.25,-530"/>
<polygon fill="none" stroke="black" points="15.75,-486 15.75,-530 148,-530 148,-486 15.75,-486"/>
<text xml:space="preserve" text-anchor="start" x="20.75" y="-510.5" font-family="Linux libertine" font-size="10.00">MultiStepParametricLIFNode</text>
<text xml:space="preserve" text-anchor="start" x="66.5" y="-498.5" font-family="Linux libertine" font-size="10.00">depth:2</text>
<polygon fill="none" stroke="black" points="148,-508 148,-530 191,-530 191,-508 148,-508"/>
<text xml:space="preserve" text-anchor="start" x="157.5" y="-515.5" font-family="Linux libertine" font-size="10.00">input:</text>
<polygon fill="none" stroke="black" points="191,-508 191,-530 272.25,-530 272.25,-508 191,-508"/>
<text xml:space="preserve" text-anchor="start" x="196" y="-515.5" font-family="Linux libertine" font-size="10.00">(1, 1, 16, 224, 224) </text>
<polygon fill="none" stroke="black" points="148,-486 148,-508 191,-508 191,-486 148,-486"/>
<text xml:space="preserve" text-anchor="start" x="153" y="-493.5" font-family="Linux libertine" font-size="10.00">output: </text>
<polygon fill="none" stroke="black" points="191,-486 191,-508 272.25,-508 272.25,-486 191,-486"/>
<text xml:space="preserve" text-anchor="start" x="196" y="-493.5" font-family="Linux libertine" font-size="10.00">(1, 1, 16, 224, 224) </text>
</g>
<!-- 2&#45;&gt;3 -->
<g id="edge3" class="edge">
<title>2&#45;&gt;3</title>
<path fill="none" stroke="black" d="M144,-566.1C144,-558.49 144,-549.7 144,-541.34"/>
<polygon fill="black" stroke="black" points="147.5,-541.47 144,-531.47 140.5,-541.47 147.5,-541.47"/>
</g>
<!-- 4 -->
<g id="node5" class="node">
<title>4</title>
<polygon fill="#c1ffc1" stroke="none" points="226.88,-450 61.12,-450 61.12,-406 226.88,-406 226.88,-450"/>
<polygon fill="none" stroke="black" points="61.12,-406 61.12,-450 102.62,-450 102.62,-406 61.12,-406"/>
<text xml:space="preserve" text-anchor="start" x="66.12" y="-430.5" font-family="Linux libertine" font-size="10.00">Conv2d</text>
<text xml:space="preserve" text-anchor="start" x="66.5" y="-418.5" font-family="Linux libertine" font-size="10.00">depth:2</text>
<polygon fill="none" stroke="black" points="102.62,-428 102.62,-450 145.62,-450 145.62,-428 102.62,-428"/>
<text xml:space="preserve" text-anchor="start" x="112.12" y="-435.5" font-family="Linux libertine" font-size="10.00">input:</text>
<polygon fill="none" stroke="black" points="145.62,-428 145.62,-450 226.88,-450 226.88,-428 145.62,-428"/>
<text xml:space="preserve" text-anchor="start" x="150.62" y="-435.5" font-family="Linux libertine" font-size="10.00">(1, 1, 16, 224, 224) </text>
<polygon fill="none" stroke="black" points="102.62,-406 102.62,-428 145.62,-428 145.62,-406 102.62,-406"/>
<text xml:space="preserve" text-anchor="start" x="107.62" y="-413.5" font-family="Linux libertine" font-size="10.00">output: </text>
<polygon fill="none" stroke="black" points="145.62,-406 145.62,-428 226.88,-428 226.88,-406 145.62,-406"/>
<text xml:space="preserve" text-anchor="start" x="150.62" y="-413.5" font-family="Linux libertine" font-size="10.00">(1, 1, 16, 224, 224) </text>
</g>
<!-- 3&#45;&gt;4 -->
<g id="edge4" class="edge">
<title>3&#45;&gt;4</title>
<path fill="none" stroke="black" d="M144,-486.1C144,-478.49 144,-469.7 144,-461.34"/>
<polygon fill="black" stroke="black" points="147.5,-461.47 144,-451.47 140.5,-461.47 147.5,-461.47"/>
</g>
<!-- 5 -->
<g id="node6" class="node">
<title>5</title>
<polygon fill="#c1ffc1" stroke="none" points="240.38,-370 47.62,-370 47.62,-326 240.38,-326 240.38,-370"/>
<polygon fill="none" stroke="black" points="47.62,-326 47.62,-370 116.12,-370 116.12,-326 47.62,-326"/>
<text xml:space="preserve" text-anchor="start" x="52.62" y="-350.5" font-family="Linux libertine" font-size="10.00">BatchNorm2d</text>
<text xml:space="preserve" text-anchor="start" x="66.5" y="-338.5" font-family="Linux libertine" font-size="10.00">depth:2</text>
<polygon fill="none" stroke="black" points="116.12,-348 116.12,-370 159.12,-370 159.12,-348 116.12,-348"/>
<text xml:space="preserve" text-anchor="start" x="125.62" y="-355.5" font-family="Linux libertine" font-size="10.00">input:</text>
<polygon fill="none" stroke="black" points="159.12,-348 159.12,-370 240.38,-370 240.38,-348 159.12,-348"/>
<text xml:space="preserve" text-anchor="start" x="164.12" y="-355.5" font-family="Linux libertine" font-size="10.00">(1, 1, 16, 224, 224) </text>
<polygon fill="none" stroke="black" points="116.12,-326 116.12,-348 159.12,-348 159.12,-326 116.12,-326"/>
<text xml:space="preserve" text-anchor="start" x="121.12" y="-333.5" font-family="Linux libertine" font-size="10.00">output: </text>
<polygon fill="none" stroke="black" points="159.12,-326 159.12,-348 240.38,-348 240.38,-326 159.12,-326"/>
<text xml:space="preserve" text-anchor="start" x="164.12" y="-333.5" font-family="Linux libertine" font-size="10.00">(1, 1, 16, 224, 224) </text>
</g>
<!-- 4&#45;&gt;5 -->
<g id="edge5" class="edge">
<title>4&#45;&gt;5</title>
<path fill="none" stroke="black" d="M144,-406.1C144,-398.49 144,-389.7 144,-381.34"/>
<polygon fill="black" stroke="black" points="147.5,-381.47 144,-371.47 140.5,-381.47 147.5,-381.47"/>
</g>
<!-- 6 -->
<g id="node7" class="node">
<title>6</title>
<polygon fill="#c1ffc1" stroke="none" points="272.25,-290 15.75,-290 15.75,-246 272.25,-246 272.25,-290"/>
<polygon fill="none" stroke="black" points="15.75,-246 15.75,-290 148,-290 148,-246 15.75,-246"/>
<text xml:space="preserve" text-anchor="start" x="20.75" y="-270.5" font-family="Linux libertine" font-size="10.00">MultiStepParametricLIFNode</text>
<text xml:space="preserve" text-anchor="start" x="66.5" y="-258.5" font-family="Linux libertine" font-size="10.00">depth:2</text>
<polygon fill="none" stroke="black" points="148,-268 148,-290 191,-290 191,-268 148,-268"/>
<text xml:space="preserve" text-anchor="start" x="157.5" y="-275.5" font-family="Linux libertine" font-size="10.00">input:</text>
<polygon fill="none" stroke="black" points="191,-268 191,-290 272.25,-290 272.25,-268 191,-268"/>
<text xml:space="preserve" text-anchor="start" x="196" y="-275.5" font-family="Linux libertine" font-size="10.00">(1, 1, 16, 224, 224) </text>
<polygon fill="none" stroke="black" points="148,-246 148,-268 191,-268 191,-246 148,-246"/>
<text xml:space="preserve" text-anchor="start" x="153" y="-253.5" font-family="Linux libertine" font-size="10.00">output: </text>
<polygon fill="none" stroke="black" points="191,-246 191,-268 272.25,-268 272.25,-246 191,-246"/>
<text xml:space="preserve" text-anchor="start" x="196" y="-253.5" font-family="Linux libertine" font-size="10.00">(1, 1, 16, 224, 224) </text>
</g>
<!-- 5&#45;&gt;6 -->
<g id="edge6" class="edge">
<title>5&#45;&gt;6</title>
<path fill="none" stroke="black" d="M144,-326.1C144,-318.49 144,-309.7 144,-301.34"/>
<polygon fill="black" stroke="black" points="147.5,-301.47 144,-291.47 140.5,-301.47 147.5,-301.47"/>
</g>
<!-- 7 -->
<g id="node8" class="node">
<title>7</title>
<polygon fill="#c1ffc1" stroke="none" points="226.88,-210 61.12,-210 61.12,-166 226.88,-166 226.88,-210"/>
<polygon fill="none" stroke="black" points="61.12,-166 61.12,-210 102.62,-210 102.62,-166 61.12,-166"/>
<text xml:space="preserve" text-anchor="start" x="66.12" y="-190.5" font-family="Linux libertine" font-size="10.00">Conv2d</text>
<text xml:space="preserve" text-anchor="start" x="66.5" y="-178.5" font-family="Linux libertine" font-size="10.00">depth:2</text>
<polygon fill="none" stroke="black" points="102.62,-188 102.62,-210 145.62,-210 145.62,-188 102.62,-188"/>
<text xml:space="preserve" text-anchor="start" x="112.12" y="-195.5" font-family="Linux libertine" font-size="10.00">input:</text>
<polygon fill="none" stroke="black" points="145.62,-188 145.62,-210 226.88,-210 226.88,-188 145.62,-188"/>
<text xml:space="preserve" text-anchor="start" x="150.62" y="-195.5" font-family="Linux libertine" font-size="10.00">(1, 1, 16, 224, 224) </text>
<polygon fill="none" stroke="black" points="102.62,-166 102.62,-188 145.62,-188 145.62,-166 102.62,-166"/>
<text xml:space="preserve" text-anchor="start" x="107.62" y="-173.5" font-family="Linux libertine" font-size="10.00">output: </text>
<polygon fill="none" stroke="black" points="145.62,-166 145.62,-188 226.88,-188 226.88,-166 145.62,-166"/>
<text xml:space="preserve" text-anchor="start" x="150.62" y="-173.5" font-family="Linux libertine" font-size="10.00">(1, 1, 64, 224, 224) </text>
</g>
<!-- 6&#45;&gt;7 -->
<g id="edge7" class="edge">
<title>6&#45;&gt;7</title>
<path fill="none" stroke="black" d="M144,-246.1C144,-238.49 144,-229.7 144,-221.34"/>
<polygon fill="black" stroke="black" points="147.5,-221.47 144,-211.47 140.5,-221.47 147.5,-221.47"/>
</g>
<!-- 8 -->
<g id="node9" class="node">
<title>8</title>
<polygon fill="#c1ffc1" stroke="none" points="240.38,-130 47.62,-130 47.62,-86 240.38,-86 240.38,-130"/>
<polygon fill="none" stroke="black" points="47.62,-86 47.62,-130 116.12,-130 116.12,-86 47.62,-86"/>
<text xml:space="preserve" text-anchor="start" x="52.62" y="-110.5" font-family="Linux libertine" font-size="10.00">BatchNorm2d</text>
<text xml:space="preserve" text-anchor="start" x="66.5" y="-98.5" font-family="Linux libertine" font-size="10.00">depth:2</text>
<polygon fill="none" stroke="black" points="116.12,-108 116.12,-130 159.12,-130 159.12,-108 116.12,-108"/>
<text xml:space="preserve" text-anchor="start" x="125.62" y="-115.5" font-family="Linux libertine" font-size="10.00">input:</text>
<polygon fill="none" stroke="black" points="159.12,-108 159.12,-130 240.38,-130 240.38,-108 159.12,-108"/>
<text xml:space="preserve" text-anchor="start" x="164.12" y="-115.5" font-family="Linux libertine" font-size="10.00">(1, 1, 64, 224, 224) </text>
<polygon fill="none" stroke="black" points="116.12,-86 116.12,-108 159.12,-108 159.12,-86 116.12,-86"/>
<text xml:space="preserve" text-anchor="start" x="121.12" y="-93.5" font-family="Linux libertine" font-size="10.00">output: </text>
<polygon fill="none" stroke="black" points="159.12,-86 159.12,-108 240.38,-108 240.38,-86 159.12,-86"/>
<text xml:space="preserve" text-anchor="start" x="164.12" y="-93.5" font-family="Linux libertine" font-size="10.00">(1, 1, 64, 224, 224) </text>
</g>
<!-- 7&#45;&gt;8 -->
<g id="edge8" class="edge">
<title>7&#45;&gt;8</title>
<path fill="none" stroke="black" d="M144,-166.1C144,-158.49 144,-149.7 144,-141.34"/>
<polygon fill="black" stroke="black" points="147.5,-141.47 144,-131.47 140.5,-141.47 147.5,-141.47"/>
</g>
<!-- 9 -->
<g id="node10" class="node">
<title>9</title>
<polygon fill="lightyellow" stroke="none" points="217.38,-50 70.62,-50 70.62,-16 217.38,-16 217.38,-50"/>
<polygon fill="none" stroke="black" points="70.62,-16 70.62,-50 138.38,-50 138.38,-16 70.62,-16"/>
<text xml:space="preserve" text-anchor="start" x="75.62" y="-35.5" font-family="Linux libertine" font-size="10.00">output&#45;tensor</text>
<text xml:space="preserve" text-anchor="start" x="89.12" y="-23.5" font-family="Linux libertine" font-size="10.00">depth:0</text>
<polygon fill="none" stroke="black" points="138.38,-16 138.38,-50 217.38,-50 217.38,-16 138.38,-16"/>
<text xml:space="preserve" text-anchor="start" x="143.38" y="-29.5" font-family="Linux libertine" font-size="10.00">(1, 1, 64, 224, 224)</text>
</g>
<!-- 8&#45;&gt;9 -->
<g id="edge9" class="edge">
<title>8&#45;&gt;9</title>
<path fill="none" stroke="black" d="M144,-86.28C144,-78.46 144,-69.45 144,-61.13"/>
<polygon fill="black" stroke="black" points="147.5,-61.18 144,-51.18 140.5,-61.18 147.5,-61.18"/>
</g>
</g>
</svg>
