<?xml version="1.0" encoding="UTF-8" standalone="no"?>
<!DOCTYPE svg PUBLIC "-//W3C//DTD SVG 1.1//EN"
 "http://www.w3.org/Graphics/SVG/1.1/DTD/svg11.dtd">
<!-- Generated by graphviz version 13.1.1 (0)
 -->
<!-- Title: model Pages: 1 -->
<svg width="238pt" height="290pt"
 viewBox="0.00 0.00 238.00 290.00" xmlns="http://www.w3.org/2000/svg" xmlns:xlink="http://www.w3.org/1999/xlink">
<g id="graph0" class="graph" transform="scale(1 1) rotate(0) translate(4 286.25)">
<title>model</title>
<polygon fill="white" stroke="none" points="-4,4 -4,-286.25 234,-286.25 234,4 -4,4"/>
<g id="clust1" class="cluster">
<title>cluster_2</title>
<polygon fill="none" stroke="black" stroke-dasharray="5,2" points="8,-8 8,-240.25 222,-240.25 222,-8 8,-8"/>
<text xml:space="preserve" text-anchor="middle" x="47.88" y="-224.85" font-family="Times,serif" font-size="12.00">Sequential</text>
</g>
<!-- 0 -->
<g id="node1" class="node">
<title>0</title>
<polygon fill="lightyellow" stroke="none" points="185,-282.25 45,-282.25 45,-248.25 185,-248.25 185,-282.25"/>
<polygon fill="none" stroke="black" points="45,-248.25 45,-282.25 106,-282.25 106,-248.25 45,-248.25"/>
<text xml:space="preserve" text-anchor="start" x="50" y="-267.75" font-family="Linux libertine" font-size="10.00">input&#45;tensor</text>
<text xml:space="preserve" text-anchor="start" x="60.12" y="-255.75" font-family="Linux libertine" font-size="10.00">depth:0</text>
<polygon fill="none" stroke="black" points="106,-248.25 106,-282.25 185,-282.25 185,-248.25 106,-248.25"/>
<text xml:space="preserve" text-anchor="start" x="111" y="-261.75" font-family="Linux libertine" font-size="10.00">(1, 1, 64, 224, 224)</text>
</g>
<!-- 1 -->
<g id="node2" class="node">
<title>1</title>
<polygon fill="#c1ffc1" stroke="none" points="200.12,-210 29.88,-210 29.88,-166 200.12,-166 200.12,-210"/>
<polygon fill="none" stroke="black" points="29.88,-166 29.88,-210 71.38,-210 71.38,-166 29.88,-166"/>
<text xml:space="preserve" text-anchor="start" x="34.88" y="-190.5" font-family="Linux libertine" font-size="10.00">Conv2d</text>
<text xml:space="preserve" text-anchor="start" x="35.25" y="-178.5" font-family="Linux libertine" font-size="10.00">depth:2</text>
<polygon fill="none" stroke="black" points="71.38,-188 71.38,-210 114.38,-210 114.38,-188 71.38,-188"/>
<text xml:space="preserve" text-anchor="start" x="80.88" y="-195.5" font-family="Linux libertine" font-size="10.00">input:</text>
<polygon fill="none" stroke="black" points="114.38,-188 114.38,-210 200.12,-210 200.12,-188 114.38,-188"/>
<text xml:space="preserve" text-anchor="start" x="121.62" y="-195.5" font-family="Linux libertine" font-size="10.00">(1, 1, 64, 224, 224) </text>
<polygon fill="none" stroke="black" points="71.38,-166 71.38,-188 114.38,-188 114.38,-166 71.38,-166"/>
<text xml:space="preserve" text-anchor="start" x="76.38" y="-173.5" font-family="Linux libertine" font-size="10.00">output: </text>
<polygon fill="none" stroke="black" points="114.38,-166 114.38,-188 200.12,-188 200.12,-166 114.38,-166"/>
<text xml:space="preserve" text-anchor="start" x="119.38" y="-173.5" font-family="Linux libertine" font-size="10.00">(1, 1, 128, 112, 112) </text>
</g>
<!-- 0&#45;&gt;1 -->
<g id="edge1" class="edge">
<title>0&#45;&gt;1</title>
<path fill="none" stroke="black" d="M115,-248.29C115,-240.4 115,-230.59 115,-221.23"/>
<polygon fill="black" stroke="black" points="118.5,-221.31 115,-211.31 111.5,-221.31 118.5,-221.31"/>
</g>
<!-- 2 -->
<g id="node3" class="node">
<title>2</title>
<polygon fill="#c1ffc1" stroke="none" points="213.62,-130 16.38,-130 16.38,-86 213.62,-86 213.62,-130"/>
<polygon fill="none" stroke="black" points="16.38,-86 16.38,-130 84.88,-130 84.88,-86 16.38,-86"/>
<text xml:space="preserve" text-anchor="start" x="21.38" y="-110.5" font-family="Linux libertine" font-size="10.00">BatchNorm2d</text>
<text xml:space="preserve" text-anchor="start" x="35.25" y="-98.5" font-family="Linux libertine" font-size="10.00">depth:2</text>
<polygon fill="none" stroke="black" points="84.88,-108 84.88,-130 127.88,-130 127.88,-108 84.88,-108"/>
<text xml:space="preserve" text-anchor="start" x="94.38" y="-115.5" font-family="Linux libertine" font-size="10.00">input:</text>
<polygon fill="none" stroke="black" points="127.88,-108 127.88,-130 213.62,-130 213.62,-108 127.88,-108"/>
<text xml:space="preserve" text-anchor="start" x="132.88" y="-115.5" font-family="Linux libertine" font-size="10.00">(1, 1, 128, 112, 112) </text>
<polygon fill="none" stroke="black" points="84.88,-86 84.88,-108 127.88,-108 127.88,-86 84.88,-86"/>
<text xml:space="preserve" text-anchor="start" x="89.88" y="-93.5" font-family="Linux libertine" font-size="10.00">output: </text>
<polygon fill="none" stroke="black" points="127.88,-86 127.88,-108 213.62,-108 213.62,-86 127.88,-86"/>
<text xml:space="preserve" text-anchor="start" x="132.88" y="-93.5" font-family="Linux libertine" font-size="10.00">(1, 1, 128, 112, 112) </text>
</g>
<!-- 1&#45;&gt;2 -->
<g id="edge2" class="edge">
<title>1&#45;&gt;2</title>
<path fill="none" stroke="black" d="M115,-166.1C115,-158.49 115,-149.7 115,-141.34"/>
<polygon fill="black" stroke="black" points="118.5,-141.47 115,-131.47 111.5,-141.47 118.5,-141.47"/>
</g>
<!-- 3 -->
<g id="node4" class="node">
<title>3</title>
<polygon fill="lightyellow" stroke="none" points="190.62,-50 39.38,-50 39.38,-16 190.62,-16 190.62,-50"/>
<polygon fill="none" stroke="black" points="39.38,-16 39.38,-50 107.12,-50 107.12,-16 39.38,-16"/>
<text xml:space="preserve" text-anchor="start" x="44.38" y="-35.5" font-family="Linux libertine" font-size="10.00">output&#45;tensor</text>
<text xml:space="preserve" text-anchor="start" x="57.88" y="-23.5" font-family="Linux libertine" font-size="10.00">depth:0</text>
<polygon fill="none" stroke="black" points="107.12,-16 107.12,-50 190.62,-50 190.62,-16 107.12,-16"/>
<text xml:space="preserve" text-anchor="start" x="112.12" y="-29.5" font-family="Linux libertine" font-size="10.00">(1, 1, 128, 112, 112)</text>
</g>
<!-- 2&#45;&gt;3 -->
<g id="edge3" class="edge">
<title>2&#45;&gt;3</title>
<path fill="none" stroke="black" d="M115,-86.28C115,-78.46 115,-69.45 115,-61.13"/>
<polygon fill="black" stroke="black" points="118.5,-61.18 115,-51.18 111.5,-61.18 118.5,-61.18"/>
</g>
</g>
</svg>
