<?xml version="1.0" encoding="UTF-8" standalone="no"?>
<!DOCTYPE svg PUBLIC "-//W3C//DTD SVG 1.1//EN"
 "http://www.w3.org/Graphics/SVG/1.1/DTD/svg11.dtd">
<!-- Generated by graphviz version 13.1.1 (0)
 -->
<!-- Title: model Pages: 1 -->
<svg width="287pt" height="432pt"
 viewBox="0.00 0.00 287.00 432.00" xmlns="http://www.w3.org/2000/svg" xmlns:xlink="http://www.w3.org/1999/xlink">
<g id="graph0" class="graph" transform="scale(1 1) rotate(0) translate(4 428)">
<title>model</title>
<polygon fill="white" stroke="none" points="-4,4 -4,-428 283,-428 283,4 -4,4"/>
<!-- 0 -->
<g id="node1" class="node">
<title>0</title>
<polygon fill="lightyellow" stroke="none" points="198.25,-424 58.25,-424 58.25,-390 198.25,-390 198.25,-424"/>
<polygon fill="none" stroke="black" points="58.25,-390 58.25,-424 119.25,-424 119.25,-390 58.25,-390"/>
<text xml:space="preserve" text-anchor="start" x="63.25" y="-409.5" font-family="Linux libertine" font-size="10.00">input&#45;tensor</text>
<text xml:space="preserve" text-anchor="start" x="73.38" y="-397.5" font-family="Linux libertine" font-size="10.00">depth:0</text>
<polygon fill="none" stroke="black" points="119.25,-390 119.25,-424 198.25,-424 198.25,-390 119.25,-390"/>
<text xml:space="preserve" text-anchor="start" x="124.25" y="-403.5" font-family="Linux libertine" font-size="10.00">(1, 1, 64, 224, 224)</text>
</g>
<!-- 1 -->
<g id="node2" class="node">
<title>1</title>
<polygon fill="#c1ffc1" stroke="none" points="211.88,-354 44.62,-354 44.62,-310 211.88,-310 211.88,-354"/>
<polygon fill="none" stroke="black" points="44.62,-310 44.62,-354 87.62,-354 87.62,-310 44.62,-310"/>
<text xml:space="preserve" text-anchor="start" x="49.62" y="-334.5" font-family="Linux libertine" font-size="10.00">Identity</text>
<text xml:space="preserve" text-anchor="start" x="50.75" y="-322.5" font-family="Linux libertine" font-size="10.00">depth:1</text>
<polygon fill="none" stroke="black" points="87.62,-332 87.62,-354 130.62,-354 130.62,-332 87.62,-332"/>
<text xml:space="preserve" text-anchor="start" x="97.12" y="-339.5" font-family="Linux libertine" font-size="10.00">input:</text>
<polygon fill="none" stroke="black" points="130.62,-332 130.62,-354 211.88,-354 211.88,-332 130.62,-332"/>
<text xml:space="preserve" text-anchor="start" x="135.62" y="-339.5" font-family="Linux libertine" font-size="10.00">(1, 1, 64, 224, 224) </text>
<polygon fill="none" stroke="black" points="87.62,-310 87.62,-332 130.62,-332 130.62,-310 87.62,-310"/>
<text xml:space="preserve" text-anchor="start" x="92.62" y="-317.5" font-family="Linux libertine" font-size="10.00">output: </text>
<polygon fill="none" stroke="black" points="130.62,-310 130.62,-332 211.88,-332 211.88,-310 130.62,-310"/>
<text xml:space="preserve" text-anchor="start" x="135.62" y="-317.5" font-family="Linux libertine" font-size="10.00">(1, 1, 64, 224, 224) </text>
</g>
<!-- 0&#45;&gt;1 -->
<g id="edge1" class="edge">
<title>0&#45;&gt;1</title>
<path fill="none" stroke="black" d="M128.25,-390.16C128.25,-382.84 128.25,-373.86 128.25,-365.21"/>
<polygon fill="black" stroke="black" points="131.75,-365.31 128.25,-355.31 124.75,-365.31 131.75,-365.31"/>
</g>
<!-- 2 -->
<g id="node3" class="node">
<title>2</title>
<polygon fill="#c1ffc1" stroke="none" points="279,-274 97.5,-274 97.5,-230 279,-230 279,-274"/>
<polygon fill="none" stroke="black" points="97.5,-230 97.5,-274 154.75,-274 154.75,-230 97.5,-230"/>
<text xml:space="preserve" text-anchor="start" x="102.5" y="-254.5" font-family="Linux libertine" font-size="10.00">BottleNeck</text>
<text xml:space="preserve" text-anchor="start" x="110.75" y="-242.5" font-family="Linux libertine" font-size="10.00">depth:1</text>
<polygon fill="none" stroke="black" points="154.75,-252 154.75,-274 197.75,-274 197.75,-252 154.75,-252"/>
<text xml:space="preserve" text-anchor="start" x="164.25" y="-259.5" font-family="Linux libertine" font-size="10.00">input:</text>
<polygon fill="none" stroke="black" points="197.75,-252 197.75,-274 279,-274 279,-252 197.75,-252"/>
<text xml:space="preserve" text-anchor="start" x="202.75" y="-259.5" font-family="Linux libertine" font-size="10.00">(1, 1, 64, 224, 224) </text>
<polygon fill="none" stroke="black" points="154.75,-230 154.75,-252 197.75,-252 197.75,-230 154.75,-230"/>
<text xml:space="preserve" text-anchor="start" x="159.75" y="-237.5" font-family="Linux libertine" font-size="10.00">output: </text>
<polygon fill="none" stroke="black" points="197.75,-230 197.75,-252 279,-252 279,-230 197.75,-230"/>
<text xml:space="preserve" text-anchor="start" x="202.75" y="-237.5" font-family="Linux libertine" font-size="10.00">(1, 1, 64, 224, 224) </text>
</g>
<!-- 1&#45;&gt;2 -->
<g id="edge2" class="edge">
<title>1&#45;&gt;2</title>
<path fill="none" stroke="black" d="M144.33,-310.1C150.72,-301.79 158.19,-292.08 165.14,-283.04"/>
<polygon fill="black" stroke="black" points="167.88,-285.22 171.2,-275.16 162.33,-280.95 167.88,-285.22"/>
</g>
<!-- 3 -->
<g id="node4" class="node">
<title>3</title>
<polygon fill="aliceblue" stroke="none" points="217.5,-194 39,-194 39,-150 217.5,-150 217.5,-194"/>
<polygon fill="none" stroke="black" points="39,-150 39,-194 79.75,-194 79.75,-150 39,-150"/>
<text xml:space="preserve" text-anchor="start" x="51.88" y="-174.5" font-family="Linux libertine" font-size="10.00">add</text>
<text xml:space="preserve" text-anchor="start" x="44" y="-162.5" font-family="Linux libertine" font-size="10.00">depth:1</text>
<polygon fill="none" stroke="black" points="79.75,-172 79.75,-194 122.75,-194 122.75,-172 79.75,-172"/>
<text xml:space="preserve" text-anchor="start" x="89.25" y="-179.5" font-family="Linux libertine" font-size="10.00">input:</text>
<polygon fill="none" stroke="black" points="122.75,-172 122.75,-194 217.5,-194 217.5,-172 122.75,-172"/>
<text xml:space="preserve" text-anchor="start" x="127.75" y="-179.5" font-family="Linux libertine" font-size="10.00">2 x (1, 1, 64, 224, 224) </text>
<polygon fill="none" stroke="black" points="79.75,-150 79.75,-172 122.75,-172 122.75,-150 79.75,-150"/>
<text xml:space="preserve" text-anchor="start" x="84.75" y="-157.5" font-family="Linux libertine" font-size="10.00">output: </text>
<polygon fill="none" stroke="black" points="122.75,-150 122.75,-172 217.5,-172 217.5,-150 122.75,-150"/>
<text xml:space="preserve" text-anchor="start" x="134.5" y="-157.5" font-family="Linux libertine" font-size="10.00">(1, 1, 64, 224, 224) </text>
</g>
<!-- 1&#45;&gt;3 -->
<g id="edge3" class="edge">
<title>1&#45;&gt;3</title>
<path fill="none" stroke="black" d="M109.02,-310.24C100.93,-300.11 92.44,-287.26 88.25,-274 82.36,-255.35 82.36,-248.65 88.25,-230 91.26,-220.47 96.5,-211.15 102.21,-202.9"/>
<polygon fill="black" stroke="black" points="104.95,-205.08 108.12,-194.98 99.34,-200.9 104.95,-205.08"/>
</g>
<!-- 2&#45;&gt;3 -->
<g id="edge4" class="edge">
<title>2&#45;&gt;3</title>
<path fill="none" stroke="black" d="M172.17,-230.1C165.78,-221.79 158.31,-212.08 151.36,-203.04"/>
<polygon fill="black" stroke="black" points="154.17,-200.95 145.3,-195.16 148.62,-205.22 154.17,-200.95"/>
</g>
<!-- 4 -->
<g id="node5" class="node">
<title>4</title>
<polygon fill="#c1ffc1" stroke="none" points="256.5,-114 0,-114 0,-70 256.5,-70 256.5,-114"/>
<polygon fill="none" stroke="black" points="0,-70 0,-114 132.25,-114 132.25,-70 0,-70"/>
<text xml:space="preserve" text-anchor="start" x="5" y="-94.5" font-family="Linux libertine" font-size="10.00">MultiStepParametricLIFNode</text>
<text xml:space="preserve" text-anchor="start" x="50.75" y="-82.5" font-family="Linux libertine" font-size="10.00">depth:1</text>
<polygon fill="none" stroke="black" points="132.25,-92 132.25,-114 175.25,-114 175.25,-92 132.25,-92"/>
<text xml:space="preserve" text-anchor="start" x="141.75" y="-99.5" font-family="Linux libertine" font-size="10.00">input:</text>
<polygon fill="none" stroke="black" points="175.25,-92 175.25,-114 256.5,-114 256.5,-92 175.25,-92"/>
<text xml:space="preserve" text-anchor="start" x="180.25" y="-99.5" font-family="Linux libertine" font-size="10.00">(1, 1, 64, 224, 224) </text>
<polygon fill="none" stroke="black" points="132.25,-70 132.25,-92 175.25,-92 175.25,-70 132.25,-70"/>
<text xml:space="preserve" text-anchor="start" x="137.25" y="-77.5" font-family="Linux libertine" font-size="10.00">output: </text>
<polygon fill="none" stroke="black" points="175.25,-70 175.25,-92 256.5,-92 256.5,-70 175.25,-70"/>
<text xml:space="preserve" text-anchor="start" x="180.25" y="-77.5" font-family="Linux libertine" font-size="10.00">(1, 1, 64, 224, 224) </text>
</g>
<!-- 3&#45;&gt;4 -->
<g id="edge5" class="edge">
<title>3&#45;&gt;4</title>
<path fill="none" stroke="black" d="M128.25,-150.1C128.25,-142.49 128.25,-133.7 128.25,-125.34"/>
<polygon fill="black" stroke="black" points="131.75,-125.47 128.25,-115.47 124.75,-125.47 131.75,-125.47"/>
</g>
<!-- 5 -->
<g id="node6" class="node">
<title>5</title>
<polygon fill="lightyellow" stroke="none" points="201.62,-34 54.88,-34 54.88,0 201.62,0 201.62,-34"/>
<polygon fill="none" stroke="black" points="54.88,0 54.88,-34 122.62,-34 122.62,0 54.88,0"/>
<text xml:space="preserve" text-anchor="start" x="59.88" y="-19.5" font-family="Linux libertine" font-size="10.00">output&#45;tensor</text>
<text xml:space="preserve" text-anchor="start" x="73.38" y="-7.5" font-family="Linux libertine" font-size="10.00">depth:0</text>
<polygon fill="none" stroke="black" points="122.62,0 122.62,-34 201.62,-34 201.62,0 122.62,0"/>
<text xml:space="preserve" text-anchor="start" x="127.62" y="-13.5" font-family="Linux libertine" font-size="10.00">(1, 1, 64, 224, 224)</text>
</g>
<!-- 4&#45;&gt;5 -->
<g id="edge6" class="edge">
<title>4&#45;&gt;5</title>
<path fill="none" stroke="black" d="M128.25,-70.28C128.25,-62.46 128.25,-53.45 128.25,-45.13"/>
<polygon fill="black" stroke="black" points="131.75,-45.18 128.25,-35.18 124.75,-45.18 131.75,-45.18"/>
</g>
</g>
</svg>
